<svg xmlns="http://www.w3.org/2000/svg" width="768" height="768" viewBox="0 0 768 768">
  <defs>
    <linearGradient id="bgRed" x1="0" y1="0" x2="0" y2="1">
      <stop offset="0%" stop-color="#ff1d25"/>
      <stop offset="100%" stop-color="#c60000"/>
    </linearGradient>
    <linearGradient id="shine" x1="0" y1="0" x2="1" y2="1">
      <stop offset="0%" stop-color="#ffffff" stop-opacity="0.35"/>
      <stop offset="100%" stop-color="#ffffff" stop-opacity="0"/>
    </linearGradient>
    <filter id="softShadow" x="-30%" y="-30%" width="160%" height="160%">
      <feDropShadow dx="0" dy="8" stdDeviation="10" flood-color="#000000" flood-opacity="0.35"/>
    </filter>
  </defs>

  <rect width="768" height="768" fill="#d9d9d9"/>

  <rect x="92" y="88" width="584" height="584" rx="98" fill="url(#bgRed)" stroke="#050505" stroke-width="10" filter="url(#softShadow)"/>
  <rect x="102" y="98" width="564" height="564" rx="90" fill="none" stroke="#2f2f2f" stroke-width="5"/>

  <path d="M112 500 Q384 660 656 516 L656 600 Q656 660 596 660 L172 660 Q112 660 112 600Z" fill="#b00000" opacity="0.8"/>
  <rect x="112" y="112" width="544" height="544" rx="86" fill="url(#shine)"/>

  <g transform="translate(170 164)">
    <rect x="0" y="0" width="286" height="150" rx="24" fill="#ff0f1a" stroke="#ff6166" stroke-width="4" filter="url(#softShadow)"/>
    <circle cx="54" cy="76" r="22" fill="#ffffff"/>
    <text x="105" y="92" fill="#ffffff" font-size="74" font-family="Arial, sans-serif" font-weight="800" letter-spacing="2">LIVE</text>
  </g>

  <g transform="translate(456 164)">
    <rect x="0" y="22" width="98" height="108" rx="16" fill="#f6f6f6"/>
    <polygon points="98,40 168,0 168,152 98,112" fill="#ffffff"/>
    <circle cx="34" cy="76" r="17" fill="#dcdcdc"/>
    <circle cx="34" cy="76" r="11" fill="#7f7f7f"/>
  </g>

  <text x="384" y="490" text-anchor="middle" fill="#ffffff" font-size="158" font-family="Arial, sans-serif" font-weight="900" letter-spacing="2">PITCH</text>

  <g transform="translate(548 516)">
    <circle cx="78" cy="78" r="72" fill="#081020" stroke="#ffffff" stroke-width="7" filter="url(#softShadow)"/>
    <rect x="44" y="56" width="52" height="38" rx="8" fill="#ffffff"/>
    <circle cx="66" cy="75" r="8" fill="#081020"/>
    <polygon points="96,61 124,50 124,100 96,89" fill="#ffffff"/>
  </g>
</svg>
